<svg xmlns="http://www.w3.org/2000/svg"  viewBox="0 0 60 60">
  <g fill="none" fill-rule="evenodd" stroke-linejoin="round" stroke-width="2" transform="translate(1 17)">
    <rect width="50" height="14" x="4" fill="#BC9A67" stroke="#BC9A67" stroke-linecap="round"/>
    <polygon fill="#89714D" stroke="#BC9A67" stroke-linecap="round" points="1 22 57 22 57 33 1 33"/>
    <path stroke="#BC9A67" stroke-linecap="square" d="M57,36.0990195 L57,31"/>
    <path fill="#FFDC82" stroke="#FFDC82" stroke-linecap="round" d="M1,18 C1,15.790861 2.79979503,14 5.00490831,14 L52.9950917,14 C55.2069415,14 57,15.7953562 57,18 L57,22 L1,22 L1,18 Z"/>
    <path fill="#FF427A" stroke="#FF427A" stroke-linecap="round" d="M14.1975678,4.9878391 C14.0884541,4.44227063 14.4509752,4.07516253 14.990778,4.16512966 L18.0353756,4.6725626 C19.1204077,4.85340128 20.8853207,4.85244656 21.9646244,4.6725626 L25.009222,4.16512966 C25.5564136,4.07393107 25.9112567,4.44371665 25.8024322,4.9878391 L25.3923564,7.03821824 C25.1756639,8.12168039 25.1741867,9.87093353 25.3923564,10.9617818 L26,14 L14,14 L14.6076436,10.9617818 C14.8243361,9.87831961 14.8258133,8.12906647 14.6076436,7.03821824 L14.1975678,4.9878391 Z"/>
    <path fill="#B976DD" stroke="#B976DD" stroke-linecap="round" d="M32.1975678,4.9878391 C32.0884541,4.44227063 32.4509752,4.07516253 32.990778,4.16512966 L36.0353756,4.6725626 C37.1204077,4.85340128 38.8853207,4.85244656 39.9646244,4.6725626 L43.009222,4.16512966 C43.5564136,4.07393107 43.9112567,4.44371665 43.8024322,4.9878391 L43.3923564,7.03821824 C43.1756639,8.12168039 43.1741867,9.87093353 43.3923564,10.9617818 L44,14 L32,14 L32.6076436,10.9617818 C32.8243361,9.87831961 32.8258133,8.12906647 32.6076436,7.03821824 L32.1975678,4.9878391 Z"/>
    <path stroke="#BC9A67" stroke-linecap="square" d="M57 36.0990195L57 31M1 36.0990195L1 31"/>
  </g>
</svg>
