<?xml version="1.0" encoding="UTF-8" standalone="no"?> <svg xmlns="http://www.w3.org/2000/svg" viewBox="0 0 60 60"><defs><style>.cls-1{fill:#ffc824;}.cls-2,.cls-4{fill:none;}.cls-2,.cls-3{stroke:#6b400d;stroke-linecap:round;stroke-linejoin:round;stroke-width:2px;}.cls-3{fill:#fff;}</style></defs><title>Airplane</title><g id="图层_2" data-name="图层 2"><g id="Icons"><g id="Airplane"><polygon class="cls-1" points="32.12 32.12 42.02 44.85 43.44 43.44 35.66 28.59 32.12 32.12"/><polygon class="cls-1" points="27.88 27.88 15.15 17.98 16.57 16.57 31.41 24.34 27.88 27.88"/><path class="cls-2" d="M24.52,39.72l-4,1a1,1,0,0,1-1.21-1.21l1-4L38.36,17.4a5.27,5.27,0,0,1,3.71-1.55h.11a2,2,0,0,1,2,1.94v.07a5.39,5.39,0,0,1-1.59,3.83Z"/><path class="cls-2" d="M20.28,35.48l1.83-1.84-5.48-.17a1.33,1.33,0,0,0-.88,2.41l3.79,2.55Z"/><path class="cls-2" d="M24.52,39.72l-2.95.74,2.55,3.79a1.33,1.33,0,0,0,2.41-.88l-.17-5.48Z"/><polygon class="cls-2" points="42.02 44.85 32.12 32.12 38.48 25.76 44.85 42.02 42.02 44.85"/><polygon class="cls-2" points="15.15 17.98 27.88 27.88 34.24 21.52 17.98 15.15 15.15 17.98"/><line class="cls-3" x1="38.72" y1="40.61" x2="37.31" y2="42.02"/><line class="cls-3" x1="35.41" y1="36.38" x2="34" y2="37.79"/><line class="cls-3" x1="19.39" y1="21.28" x2="17.98" y2="22.69"/><line class="cls-3" x1="23.62" y1="24.59" x2="22.21" y2="26"/><path class="cls-1" d="M41.81,18.9l-.71-.71a1,1,0,0,0-1.41,0,1,1,0,0,0,0,1.42l.7.7a1,1,0,0,0,1.42-1.41Z"/><rect class="cls-4" width="60" height="60"/></g></g></g></svg>